<?xml version="1.0" standalone="no"?><!DOCTYPE svg PUBLIC "-//W3C//DTD SVG 1.1//EN" "http://www.w3.org/Graphics/SVG/1.1/DTD/svg11.dtd"><svg t="1668845708845" class="icon" viewBox="0 0 1024 1024" version="1.1" xmlns="http://www.w3.org/2000/svg" p-id="9557" xmlns:xlink="http://www.w3.org/1999/xlink" width="240" height="240"><path d="M511.998969 511.998969m-511.998969 0a511.998969 511.998969 0 1 0 1023.997938 0 511.998969 511.998969 0 1 0-1023.997938 0Z" fill="#E1E6E9" p-id="9558"></path><path d="M116.799339 388.799694h790.399259v505.599033H116.799339z" fill="#FFFFFF" p-id="9559"></path><path d="M907.200661 910.399597H116.799339c-9.600935 0-16.00087-6.399936-16.00087-16.00087V388.799694c0-9.600935 6.399936-16.00087 16.00087-16.00087h790.399259c9.600935 0 16.00087 6.399936 16.00087 16.00087v505.599033c0 9.600935-6.399936 16.00087-15.998807 16.00087zM132.800209 878.399919h758.399582V404.800564H132.800209v473.599355z" fill="#193651" p-id="9560"></path><path d="M176.160134 449.791925h670.39892v385.600758H176.160134z" fill="#25b939" p-id="9561" data-spm-anchor-id="a313x.7781069.0.i1" class="selected"></path><path d="M497.600661 544.000709H527.999839v31.999678h-30.399178z" fill="#193651" p-id="9562"></path><path d="M497.600661 625.599372H527.999839v31.999677h-30.399178zM497.600661 707.200097H527.999839V739.199774h-30.399178z" fill="#193651" p-id="9563"></path><path d="M263.999919 287.999162v382.399758c0 46.400048 36.799114 83.199162 83.199163 83.199163s83.199162-36.799114 83.199162-83.199163V287.999162H263.999919z" fill="#FFFFFF" p-id="9564"></path><path d="M347.199082 768.000516c-54.400483 0-99.200032-44.799549-99.200033-99.200033v-380.799258c0-9.600935 6.399936-16.00087 16.00087-16.000871h166.400387c9.600935 0 16.00087 6.399936 16.00087 16.000871v382.399758c-0.002062 52.797921-44.801611 97.599533-99.202094 97.599533z m-67.198292-464.000484v366.398888c0 36.799114 30.399178 67.200354 67.200354 67.200355s67.200354-30.399178 67.200355-67.200355V304.000032h-134.400709z" fill="#193651" p-id="9565"></path><path d="M238.400177 206.4005h217.599871v81.600725H238.400177z" fill="#FFFFFF" p-id="9566"></path><path d="M456.000048 304.000032H238.400177c-9.600935 0-16.00087-6.399936-16.00087-16.00087v-81.600725c0-9.600935 6.399936-16.00087 16.00087-16.00087h217.599871c9.600935 0 16.00087 6.399936 16.00087 16.00087v81.600725c-0.002062 8.000435-8.000435 16.00087-16.00087 16.00087z m-201.601063-31.999678h185.600193V222.399307h-185.600193v49.601047z" fill="#193651" p-id="9567"></path><path d="M593.599694 287.999162v382.399758c0 46.400048 36.799114 83.199162 83.199162 83.199163s83.199162-36.799114 83.199162-83.199163V287.999162h-166.398324z" fill="#FFFFFF" p-id="9568"></path><path d="M676.798856 768.000516c-54.400483 0-99.200032-44.799549-99.200032-99.200033v-380.799258c0-9.600935 6.399936-16.00087 16.00087-16.000871h166.400387c9.600935 0 16.00087 6.399936 16.00087 16.000871v382.399758c-0.002062 52.797921-44.801611 97.599533-99.202095 97.599533z m-67.198292-464.000484v366.398888c0 36.799114 30.399178 67.200354 67.200354 67.200355 36.799114 0 67.200354-30.399178 67.200355-67.200355V304.000032h-134.400709z" fill="#193651" p-id="9569"></path><path d="M263.999919 492.799162v175.999259c0 46.400048 36.799114 83.199162 83.199163 83.199162s83.199162-36.799114 83.199162-83.199162v-175.999259H263.999919z" fill="#F16051" p-id="9570"></path><path d="M347.199082 768.000516c-54.400483 0-99.200032-44.799549-99.200033-99.200033v-175.999258c0-9.600935 6.399936-16.00087 16.00087-16.000871 9.600935 0 16.00087 6.399936 16.000871 16.000871v175.999258c0 36.799114 30.399178 67.200354 67.200354 67.200355s67.200354-30.399178 67.200355-67.200355v-175.999258c0-9.600935 6.399936-16.00087 16.00087-16.000871 9.600935 0 16.00087 6.399936 16.00087 16.000871v175.999258c-0.004125 54.398421-44.803674 99.200032-99.204157 99.200033z" fill="#193651" p-id="9571"></path><path d="M593.599694 492.799162v175.999259c0 46.400048 36.799114 83.199162 83.199162 83.199162s83.199162-36.799114 83.199162-83.199162v-175.999259h-166.398324z" fill="#FDBF5E" p-id="9572"></path><path d="M676.798856 768.000516c-54.400483 0-99.200032-44.799549-99.200032-99.200033v-175.999258c0-9.600935 6.399936-16.00087 16.00087-16.000871s16.00087 6.399936 16.00087 16.000871v175.999258c0 36.799114 30.399178 67.200354 67.200354 67.200355 36.799114 0 67.200354-30.399178 67.200355-67.200355v-175.999258c0-9.600935 6.399936-16.00087 16.00087-16.000871s16.00087 6.399936 16.00087 16.000871v175.999258c-0.004125 54.398421-44.803674 99.200032-99.204157 99.200033z" fill="#193651" p-id="9573"></path><path d="M567.999952 206.4005h217.599871v81.600725H567.999952z" fill="#FFFFFF" p-id="9574"></path><path d="M785.599823 304.000032H567.999952c-9.600935 0-16.00087-6.399936-16.00087-16.00087v-81.600725c0-9.600935 6.399936-16.00087 16.00087-16.00087h217.599871c9.600935 0 16.00087 6.399936 16.00087 16.00087v81.600725c0 8.000435-6.399936 16.00087-16.00087 16.00087z m-201.599001-31.999678h185.600193V222.399307h-185.600193v49.601047z" fill="#193651" p-id="9575"></path><path d="M44.799549 894.398727h934.39884v84.799662H44.799549z" fill="#FFFFFF" p-id="9576"></path><path d="M979.200451 995.199259H44.799549c-9.600935 0-16.00087-6.399936-16.00087-16.00087v-84.799662c0-9.600935 6.399936-16.00087 16.00087-16.00087h934.39884c9.600935 0 16.00087 6.399936 16.00087 16.00087v84.799662c0 9.600935-6.399936 16.00087-15.998808 16.00087zM60.800419 963.199581h902.399162v-52.799984H60.800419v52.799984z" fill="#193651" p-id="9577"></path><path d="M676.798856 84.799662m-40.000113 0a40.000113 40.000113 0 1 0 80.000226 0 40.000113 40.000113 0 1 0-80.000226 0Z" fill="#FDBF5E" p-id="9578"></path><path d="M676.798856 139.200145c-30.399178 0-55.99892-25.599742-55.99892-56.000983s25.599742-56.000983 55.99892-56.000983c30.399178 0 56.000983 25.599742 56.000983 56.000983 0 32.00174-25.599742 56.000983-56.000983 56.000983z m0-78.399726c-12.799871 0-23.999243 11.199372-23.999243 23.999243s11.199372 23.999243 23.999243 23.999242 23.999243-11.199372 23.999243-23.999242-11.197309-23.999243-23.999243-23.999243z" fill="#193651" p-id="9579"></path><path d="M876.79942 147.20058m-48.000548 0a48.000548 48.000548 0 1 0 96.001096 0 48.000548 48.000548 0 1 0-96.001096 0Z" fill="#FDBF5E" p-id="9580"></path><path d="M876.79942 209.599436c-35.200677 0-63.999355-28.800741-63.999356-63.999355s28.800741-63.999355 63.999356-63.999356c35.200677 0 63.999355 28.800741 63.999355 63.999356s-28.798679 63.999355-63.999355 63.999355z m0-94.398534c-17.599307 0-31.999678 14.400371-31.999678 31.999678s14.400371 31.999678 31.999678 31.999678c17.599307 0 31.999678-14.400371 31.999678-31.999678s-14.400371-31.999678-31.999678-31.999678z" fill="#193651" p-id="9581"></path><path d="M342.399646 84.799662m-40.000113 0a40.000113 40.000113 0 1 0 80.000225 0 40.000113 40.000113 0 1 0-80.000225 0Z" fill="#F16051" p-id="9582"></path><path d="M342.399646 139.200145c-30.399178 0-56.000983-25.599742-56.000983-56.000983s25.599742-56.000983 56.000983-56.000983c30.399178 0 56.000983 25.599742 56.000982 56.000983-1.6005 32.00174-25.599742 56.000983-56.000982 56.000983z m0-78.399726c-12.799871 0-23.999243 11.199372-23.999243 23.999243s11.199372 23.999243 23.999243 23.999242c12.799871 0 23.999243-11.199372 23.999242-23.999242s-11.199372-23.999243-23.999242-23.999243z" fill="#193651" p-id="9583"></path><path d="M142.399082 147.20058m-48.000548 0a48.000548 48.000548 0 1 0 96.001095 0 48.000548 48.000548 0 1 0-96.001095 0Z" fill="#F16051" p-id="9584"></path><path d="M142.399082 209.599436c-35.200677 0-63.999355-28.800741-63.999356-63.999355s28.800741-63.999355 63.999356-63.999356 63.999355 28.800741 63.999355 63.999356-28.798679 63.999355-63.999355 63.999355z m0-94.398534c-17.599307 0-31.999678 14.400371-31.999678 31.999678s14.400371 31.999678 31.999678 31.999678 31.999678-14.400371 31.999677-31.999678c-1.598437-17.60137-14.398308-31.999678-31.999677-31.999678z" fill="#193651" p-id="9585"></path></svg>